<svg width="75" height="80" viewBox="0 0 75 80" fill="none" xmlns="http://www.w3.org/2000/svg">
<circle cx="37.2633" cy="42.1503" r="37.2633" transform="rotate(180 37.2633 42.1503)" fill="white" fill-opacity="0.8"/>
<path d="M65.7589 45.9112C65.8214 45.0823 65.8839 44.1895 65.8839 43.2968C65.8839 27.6743 53.0734 14.9849 37.3259 14.9849C21.5783 14.9849 8.70532 27.6743 8.70532 43.2968C8.70532 44.1895 8.76781 45.0185 8.8303 45.9112" stroke="#242424" stroke-miterlimit="10"/>
<path d="M54.7607 32.0103L37.2634 40.1085C36.2011 39.5984 34.8888 39.9172 34.1389 40.9375C33.9514 41.1926 33.8264 41.4476 33.7639 41.7664L32.0142 42.5954L30.8269 45.2736L33.514 46.1663L35.3887 44.9547C36.3885 45.2736 37.5134 44.9547 38.2008 44.062C38.4507 43.6794 38.6382 43.2331 38.6382 42.7867L54.7607 32.0103Z" fill="#242424"/>
<path d="M30.2644 16.5153C30.5769 17.9819 30.8893 19.4485 31.2018 20.9151C31.3268 21.4252 32.0767 21.2339 31.9517 20.7238C31.6392 19.2572 31.3268 17.7906 31.0143 16.324C30.9518 15.8139 30.2019 16.0052 30.2644 16.5153Z" fill="#242424"/>
<path d="M43.1999 16.0052C42.9499 17.4718 42.6999 18.9384 42.45 20.405C42.3875 20.9151 43.1374 21.1064 43.1999 20.5963C43.4498 19.1297 43.6998 17.6631 43.9497 16.1965C44.0122 15.6863 43.2624 15.495 43.1999 16.0052Z" fill="#242424"/>
<path d="M54.6981 21.5528C53.8232 22.7643 53.0108 23.9759 52.136 25.1874C51.8235 25.6338 52.5109 26.0163 52.8234 25.57C53.6982 24.3584 54.5106 23.1469 55.3855 21.9354C55.6354 21.489 55.0105 21.1064 54.6981 21.5528Z" fill="#242424"/>
<path d="M62.6343 31.6915C61.322 32.3291 60.0097 32.9668 58.6349 33.6045C58.1975 33.7957 58.5724 34.4972 59.0099 34.3059C60.3222 33.6682 61.6345 33.0306 63.0092 32.3929C63.5092 32.1378 63.0717 31.4364 62.6343 31.6915Z" fill="#242424"/>
<path d="M65.259 44.1895C63.8218 44.3171 62.322 44.3808 60.8847 44.5084C60.3848 44.5721 60.3848 45.3373 60.8847 45.2736C62.322 45.146 63.8218 45.0823 65.259 44.9547C65.759 44.891 65.759 44.1258 65.259 44.1895Z" fill="#242424"/>
<path d="M22.2658 25.5062C21.3285 24.3585 20.3911 23.2107 19.3913 22.1267C19.0788 21.7441 18.5164 22.318 18.8289 22.7005C19.7662 23.8483 20.7036 24.9961 21.7034 26.0801C22.0159 26.4627 22.5783 25.8888 22.2658 25.5062Z" fill="#242424"/>
<path d="M15.6418 34.1783C14.267 33.732 12.8297 33.2856 11.455 32.8393C10.955 32.7117 10.7676 33.4769 11.2675 33.6045C12.6423 34.0508 14.0795 34.4972 15.4543 34.9435C15.8918 35.1348 16.1417 34.3696 15.6418 34.1783Z" fill="#242424"/>
<path d="M13.5171 44.062C12.0798 44.1258 10.58 44.1896 9.14276 44.2533C8.64284 44.2533 8.64284 45.0823 9.14276 45.0185C10.58 44.9547 12.0798 44.891 13.5171 44.8272C14.017 44.8272 14.017 43.9983 13.5171 44.062Z" fill="#242424"/>
</svg>
