<svg width="45" height="46" viewBox="0 0 45 46" fill="none" xmlns="http://www.w3.org/2000/svg">
<path d="M22.5001 26.8893C28.8041 26.8893 33.9145 21.6654 33.9145 15.2213C33.9145 8.77719 28.8041 3.55322 22.5001 3.55322C16.1961 3.55322 11.0857 8.77719 11.0857 15.2213C11.0857 21.6654 16.1961 26.8893 22.5001 26.8893Z" stroke="#AAC264" stroke-miterlimit="10"/>
<path d="M31.19 42.1106C37.494 42.1106 42.6044 36.8867 42.6044 30.4426C42.6044 23.9985 37.494 18.7745 31.19 18.7745C24.886 18.7745 19.7756 23.9985 19.7756 30.4426C19.7756 36.8867 24.886 42.1106 31.19 42.1106Z" stroke="#AAC264" stroke-miterlimit="10"/>
<path d="M13.8099 42.1106C20.1139 42.1106 25.2243 36.8867 25.2243 30.4426C25.2243 23.9985 20.1139 18.7745 13.8099 18.7745C7.50591 18.7745 2.39551 23.9985 2.39551 30.4426C2.39551 36.8867 7.50591 42.1106 13.8099 42.1106Z" stroke="#AAC264" stroke-miterlimit="10"/>
<path d="M22.1711 16.2296C22.1711 16.5177 22.406 16.8058 22.7348 16.8058C23.0636 16.8058 23.2985 16.5658 23.2985 16.2296C23.2985 15.9415 23.0636 15.6534 22.7348 15.6534C22.406 15.7015 22.1711 15.9415 22.1711 16.2296ZM22.7348 16.2296C22.7348 16.2777 22.7348 16.2777 22.7348 16.2296C22.6878 16.2777 22.6409 16.2777 22.6409 16.2296C22.6878 16.2296 22.6878 16.1816 22.7348 16.2296C22.7348 16.1816 22.7348 16.2296 22.7348 16.2296Z" fill="#AAC264"/>
<path d="M25.0836 13.7808C25.1776 13.7808 25.2246 13.7328 25.3185 13.6848C25.4125 13.5887 25.4125 13.3967 25.3185 13.2526C24.6139 12.5804 23.7214 12.2443 22.735 12.2443C21.7955 12.2443 20.9031 12.5804 20.1985 13.2526C20.0575 13.3486 20.0575 13.5407 20.1985 13.6848C20.2924 13.8288 20.4803 13.8288 20.6212 13.6848C21.2319 13.1566 21.9834 12.8205 22.782 12.8205C23.5805 12.8205 24.3791 13.1086 24.9427 13.6848C24.9427 13.7328 24.9897 13.7808 25.0836 13.7808Z" fill="#AAC264"/>
<path d="M24.0032 15.1253C24.0972 15.1253 24.1441 15.0772 24.2381 15.0292C24.332 14.9332 24.332 14.7411 24.2381 14.5971C23.8153 14.2129 23.2986 14.0209 22.7349 14.0209C22.1713 14.0209 21.6546 14.2129 21.2788 14.5971C21.1379 14.6931 21.1379 14.8852 21.2788 15.0292C21.3727 15.1733 21.5606 15.1733 21.7015 15.0292C21.9834 14.7411 22.4061 14.5971 22.7819 14.5971C23.2047 14.5971 23.5805 14.7411 23.8623 15.0292C23.8623 15.0772 23.9093 15.1253 24.0032 15.1253Z" fill="#AAC264"/>
<path d="M26.4458 12.5804C26.5397 12.5804 26.5867 12.5324 26.6806 12.4844C26.7746 12.3883 26.7746 12.1963 26.6806 12.0522C25.6003 11.0439 24.1911 10.4677 22.7349 10.4677C21.2787 10.4677 19.9165 10.9958 18.8362 12.0042C18.6952 12.1002 18.6952 12.2923 18.8362 12.4363C18.9301 12.5804 19.118 12.5804 19.2589 12.4363C20.2453 11.524 21.4666 11.0439 22.7819 11.0439C24.0971 11.0439 25.3654 11.524 26.3048 12.4363C26.3048 12.5324 26.3518 12.5804 26.4458 12.5804Z" fill="#AAC264"/>
<path d="M13.2463 33.8517C13.2463 34.1398 13.4812 34.4279 13.81 34.4279C14.1388 34.4279 14.3737 34.1878 14.3737 33.8517C14.3737 33.5636 14.1388 33.2755 13.81 33.2755C13.5282 33.3235 13.2463 33.5636 13.2463 33.8517ZM13.857 33.8517C13.857 33.8517 13.81 33.8997 13.857 33.8517C13.81 33.8997 13.763 33.8997 13.763 33.8517C13.763 33.8517 13.763 33.8037 13.857 33.8517C13.81 33.8037 13.857 33.8517 13.857 33.8517Z" fill="#AAC264"/>
<path d="M16.2057 31.4029C16.2997 31.4029 16.3466 31.3548 16.4406 31.3068C16.5345 31.2108 16.5345 31.0187 16.4406 30.8747C15.736 30.2025 14.8435 29.8663 13.8571 29.8663C12.9176 29.8663 12.0251 30.2025 11.3205 30.8747C11.1796 30.9707 11.1796 31.1628 11.3205 31.3068C11.4145 31.4509 11.6024 31.4509 11.7433 31.3068C12.3539 30.7786 13.1055 30.4425 13.904 30.4425C14.7026 30.4425 15.5011 30.7306 16.0648 31.3068C16.0648 31.3548 16.1118 31.4029 16.2057 31.4029Z" fill="#AAC264"/>
<path d="M15.0784 32.7473C15.1724 32.7473 15.2193 32.6993 15.3133 32.6513C15.4072 32.5553 15.4072 32.3632 15.3133 32.2191C14.8905 31.835 14.3738 31.6429 13.8101 31.6429C13.2465 31.6429 12.7298 31.835 12.354 32.2191C12.2131 32.3152 12.2131 32.5072 12.354 32.6513C12.4479 32.7953 12.6358 32.7953 12.7767 32.6513C13.0586 32.3632 13.4813 32.2191 13.8571 32.2191C14.2799 32.2191 14.6556 32.3632 14.9375 32.6513C14.9375 32.6993 15.0314 32.7473 15.0784 32.7473Z" fill="#AAC264"/>
<path d="M17.521 30.2025C17.6149 30.2025 17.6619 30.1544 17.7558 30.1064C17.8498 30.0104 17.8498 29.8183 17.7558 29.6743C16.6754 28.6659 15.2663 28.0897 13.8101 28.0897C12.3539 28.0897 10.9917 28.6179 9.91135 29.6263C9.77043 29.7223 9.77043 29.9144 9.91135 30.0584C10.0523 30.2025 10.1932 30.2025 10.3341 30.0584C11.3205 29.1461 12.5418 28.6659 13.8571 28.6659C15.1723 28.6659 16.4406 29.1461 17.38 30.0584C17.427 30.1544 17.474 30.2025 17.521 30.2025Z" fill="#AAC264"/>
<path d="M30.6262 33.9958C30.6262 34.2839 30.8611 34.572 31.1899 34.572C31.5187 34.572 31.7536 34.3319 31.7536 33.9958C31.7536 33.7077 31.5187 33.4196 31.1899 33.4196C30.9081 33.4196 30.6262 33.7077 30.6262 33.9958ZM31.2369 33.9958C31.2369 33.9958 31.2369 34.0438 31.2369 33.9958C31.1899 34.0438 31.1429 34.0438 31.1429 33.9958C31.1429 33.9958 31.1429 33.9477 31.2369 33.9958C31.2369 33.9477 31.2369 33.9958 31.2369 33.9958Z" fill="#AAC264"/>
<path d="M33.5856 31.5469C33.6795 31.5469 33.7265 31.4989 33.8205 31.4509C33.9144 31.3548 33.9144 31.1628 33.8205 31.0187C33.1159 30.3465 32.2234 30.0104 31.237 30.0104C30.2975 30.0104 29.405 30.3465 28.7004 31.0187C28.5595 31.1148 28.5595 31.3068 28.7004 31.4509C28.7944 31.5949 28.9823 31.5949 29.1232 31.4509C29.7338 30.9227 30.4854 30.5866 31.2839 30.5866C32.0825 30.5866 32.881 30.8747 33.4447 31.4509C33.4447 31.4989 33.4916 31.5469 33.5856 31.5469Z" fill="#AAC264"/>
<path d="M32.5052 32.8434C32.5991 32.8434 32.6461 32.7954 32.74 32.7474C32.834 32.6513 32.834 32.4593 32.74 32.3152C32.3173 31.9311 31.8006 31.739 31.2369 31.739C30.6732 31.739 30.1565 31.9311 29.7807 32.3152C29.6398 32.4112 29.6398 32.6033 29.7807 32.7474C29.8747 32.8914 30.0626 32.8914 30.2035 32.7474C30.4853 32.4593 30.9081 32.3152 31.2839 32.3152C31.7066 32.3152 32.0824 32.4593 32.3642 32.7474C32.3642 32.8434 32.4112 32.8434 32.5052 32.8434Z" fill="#AAC264"/>
<path d="M34.9477 30.3465C35.0417 30.3465 35.0886 30.2985 35.1826 30.2505C35.2765 30.1544 35.2765 29.9624 35.1826 29.8183C34.1022 28.81 32.693 28.2338 31.2369 28.2338C29.7807 28.2338 28.4185 28.7619 27.3381 29.7703C27.1972 29.8663 27.1972 30.0584 27.3381 30.2025C27.4321 30.3465 27.6199 30.3465 27.7609 30.2025C28.7473 29.2901 29.9686 28.81 31.2838 28.81C32.5991 28.81 33.8673 29.2901 34.8068 30.2025C34.8068 30.2985 34.8538 30.3465 34.9477 30.3465Z" fill="#AAC264"/>
</svg>
