<svg width="74" height="74" viewBox="0 0 74 74" fill="none" xmlns="http://www.w3.org/2000/svg">
<circle cx="37" cy="37" r="37" fill="#242424"/>
<path d="M59.5104 37.5052C59.5104 49.6584 49.6584 59.5104 37.5052 59.5104C25.3521 59.5104 15.5 49.6584 15.5 37.5052C15.5 25.3521 25.3521 15.5 37.5052 15.5C49.6584 15.5 59.5104 25.3521 59.5104 37.5052Z" stroke="white"/>
<path d="M25.8412 40.221C29.2316 43.0853 32.5635 45.9496 35.9539 48.8724C36.48 49.34 37.2984 49.2816 37.6491 48.6386C41.8579 41.9162 46.1251 35.1939 50.3924 28.4715C51.1523 27.3024 49.2233 26.1918 48.5218 27.3609C44.313 34.0832 40.0458 40.8056 35.7786 47.5279C36.3631 47.4695 36.9477 47.3525 37.4738 47.2941C34.0834 44.4298 30.7514 41.5655 27.4195 38.6427C26.3088 37.7659 24.789 39.3442 25.8412 40.221Z" fill="white"/>
</svg>
