<svg width="74" height="74" viewBox="0 0 74 74" fill="none" xmlns="http://www.w3.org/2000/svg">
<circle cx="37" cy="37" r="37" fill="#242424"/>
<path d="M58.5324 34.4074C57.2923 23.6412 48.1044 15.2988 37 15.2988C25.0501 15.2988 15.2986 25.0504 15.2986 37.0003C15.2986 48.9502 24.9938 58.7017 37 58.7017C42.6368 58.7017 47.7662 56.5598 51.6556 53.0086" stroke="white" stroke-miterlimit="10" stroke-linecap="round" stroke-linejoin="round"/>
<path d="M31.8616 40.3828H30.6809V32.5562L28.3132 33.4258V32.3594L31.6775 31.0962H31.8616V40.3828ZM37.0095 35.1904H37.8918C38.4462 35.182 38.8821 35.036 39.1995 34.7524C39.5168 34.4689 39.6755 34.0859 39.6755 33.6035C39.6755 32.5202 39.136 31.9785 38.0569 31.9785C37.5491 31.9785 37.1428 32.1245 36.8381 32.4165C36.5377 32.7043 36.3875 33.0872 36.3875 33.5654H35.2131C35.2131 32.8333 35.4797 32.2261 36.0129 31.7437C36.5504 31.257 37.2317 31.0137 38.0569 31.0137C38.9286 31.0137 39.6121 31.2443 40.1072 31.7056C40.6023 32.1668 40.8499 32.8079 40.8499 33.6289C40.8499 34.0309 40.7187 34.4202 40.4563 34.7969C40.1982 35.1735 39.8448 35.4549 39.3962 35.6411C39.9041 35.8019 40.2955 36.0685 40.5706 36.4409C40.8499 36.8133 40.9895 37.2682 40.9895 37.8057C40.9895 38.6351 40.7187 39.2931 40.177 39.7798C39.6353 40.2664 38.9307 40.5098 38.0632 40.5098C37.1957 40.5098 36.489 40.2749 35.9431 39.8052C35.4014 39.3354 35.1306 38.7155 35.1306 37.9453H36.3113C36.3113 38.432 36.47 38.8213 36.7874 39.1133C37.1047 39.4053 37.53 39.5513 38.0632 39.5513C38.6303 39.5513 39.064 39.4032 39.3645 39.1069C39.665 38.8107 39.8152 38.3854 39.8152 37.8311C39.8152 37.2936 39.6501 36.881 39.3201 36.5933C38.99 36.3055 38.5139 36.1574 37.8918 36.1489H37.0095V35.1904Z" fill="white"/>
<path d="M55.714 34.9142L61.2944 34.2378C61.4635 34.2378 61.6326 34.4069 61.5198 34.576L59.2088 39.029C59.1524 39.1981 58.9269 39.1981 58.8142 39.0854L55.5449 35.3651C55.4322 35.196 55.5449 34.9706 55.714 34.9142Z" stroke="white" stroke-miterlimit="10"/>
</svg>
