<svg width="74" height="74" viewBox="0 0 74 74" fill="none" xmlns="http://www.w3.org/2000/svg">
<circle cx="37" cy="37" r="37" fill="#242424"/>
<path d="M25.0669 28.5229L38.2182 41.6743C36.737 44.0083 38.0836 46.9707 39.4301 48.3173L48.3623 56.8006C50.4719 58.7756 53.7485 58.7307 55.7683 56.7108C57.833 54.6461 57.833 51.2797 55.7683 49.215L47.5543 40.9561C46.2078 39.6096 43.5147 37.9488 40.5971 39.3851L27.4907 26.2787C27.4907 26.2787 27.6702 23.9446 25.9197 22.239C24.8424 21.1618 21.6107 19.2766 20.0397 18.3789C19.5011 18.0647 18.8278 18.1545 18.4239 18.6033L17.571 19.4561C17.1222 19.905 17.0324 20.5783 17.3915 21.1618L20.3539 25.9645C21.0721 27.1315 22.1493 27.9843 23.451 28.3434C23.8998 28.478 24.4385 28.5678 25.0669 28.5229Z" stroke="white" stroke-miterlimit="10"/>
<path d="M30.0939 37.3652L35.6148 42.8861C35.6148 42.8861 34.8518 45.3548 35.6148 47.24L26.4582 56.4414C24.3486 58.551 20.8925 58.551 18.738 56.4414C16.5835 54.2869 16.6284 50.8308 18.738 48.7212L30.0939 37.3652Z" stroke="white" stroke-miterlimit="10"/>
<path d="M36.2881 31.2609L37.904 29.645C38.1733 29.3757 38.3079 28.9718 38.263 28.6127C38.0835 27.1315 37.9937 23.0918 40.6419 20.1294C43.9635 16.4488 48.4969 16.3141 51.5939 17.2567L46.477 22.3288C44.7714 24.0344 44.7714 26.8173 46.477 28.5229C48.1827 30.2285 50.9655 30.2285 52.6712 28.5229L57.7881 23.406C57.7881 23.406 59.763 30.3183 55.0501 34.3131C50.3371 38.3079 46.5668 36.6471 45.0856 36.4676C43.3799 36.2432 41.7192 36.8716 41.7192 36.8716L36.2881 31.2609Z" stroke="white" stroke-miterlimit="10"/>
<path d="M22.3738 55.2744C23.7124 55.2744 24.7976 54.1892 24.7976 52.8506C24.7976 51.5119 23.7124 50.4268 22.3738 50.4268C21.0351 50.4268 19.95 51.5119 19.95 52.8506C19.95 54.1892 21.0351 55.2744 22.3738 55.2744Z" stroke="white" stroke-miterlimit="10"/>
</svg>
