<svg width="74" height="74" viewBox="0 0 74 74" fill="none" xmlns="http://www.w3.org/2000/svg">
<circle cx="37" cy="37" r="37" fill="#242424"/>
<path d="M27.9016 36.3936H32.7541" stroke="white" stroke-linecap="round" stroke-linejoin="round"/>
<path d="M27.9016 40.0327H32.7541" stroke="white" stroke-linecap="round" stroke-linejoin="round"/>
<path d="M27.9016 43.6724H32.7541" stroke="white" stroke-linecap="round" stroke-linejoin="round"/>
<path d="M27.9016 47.3115H32.7541" stroke="white" stroke-linecap="round" stroke-linejoin="round"/>
<path d="M27.9016 29.1147L41.2459 29.1147" stroke="white" stroke-linecap="round" stroke-linejoin="round"/>
<path d="M35.1804 50.9507H48.5247" stroke="white" stroke-linecap="round" stroke-linejoin="round"/>
<path d="M27.9016 24.2622H48.5246" stroke="white" stroke-linecap="round" stroke-linejoin="round"/>
<path d="M46.0984 29.1147H48.5246" stroke="white" stroke-linecap="round" stroke-linejoin="round"/>
<path d="M27.9016 50.9507H32.7541" stroke="white" stroke-linecap="round" stroke-linejoin="round"/>
<path d="M23.8355 46.8461V55.0164C23.8355 56.1209 22.9401 57.0164 21.8355 57.0164H20.1055M23.8355 46.8461V15.3442C23.8355 14.2397 24.731 13.3442 25.8355 13.3442H50.164C51.2685 13.3442 52.164 14.2397 52.164 15.3442V55.0164C52.164 56.1209 51.2685 57.0164 50.164 57.0164H17.7705C16.6659 57.0164 15.7705 56.1209 15.7705 55.0164V48.8461C15.7705 47.7416 16.6659 46.8461 17.7705 46.8461H23.8355Z" stroke="white"/>
<path d="M37.6064 40.0329L41.4278 43.6722L48.5245 36.3936" stroke="white" stroke-linecap="round" stroke-linejoin="round"/>
<path d="M27.9016 19.4097H43.6721" stroke="white" stroke-linecap="round" stroke-linejoin="round"/>
</svg>
