<svg width="75" height="75" viewBox="0 0 75 75" fill="none" xmlns="http://www.w3.org/2000/svg">
<circle cx="37.2633" cy="37.2633" r="37.2633" fill="white" fill-opacity="0.8"/>
<g clip-path="url(#clip0)">
<path d="M37.8894 60.7413H35.5326C28.7301 60.7413 23.8559 57.099 23.8559 50.3501L23.2131 19.3906C23.2131 10.1778 50.3161 9.48146 50.2625 19.3906L49.7804 50.1358C49.7804 56.9384 45.4418 60.7413 37.8894 60.7413Z" stroke="black" stroke-width="0.8" stroke-miterlimit="10"/>
<path d="M30.5513 18.7479C31.7832 18.6408 33.0152 18.5872 34.3007 18.5336C37.4609 18.4265 40.4069 18.5336 43.2457 18.7479L42.3351 19.1228H31.4083L30.5513 18.7479Z" stroke="black" stroke-width="0.8" stroke-miterlimit="10"/>
<path d="M29.5872 19.6585L31.3012 19.3906C31.569 19.4442 31.8368 19.4978 32.1046 19.4978C33.7115 19.712 35.2648 19.9263 36.8182 20.1405C37.2467 20.087 37.6752 19.9798 38.1037 19.9263C39.4963 19.712 40.8354 19.5513 42.228 19.3371L43.9956 19.6049L36.8717 21.5332L29.5872 19.6585Z" stroke="black" stroke-width="0.8" stroke-miterlimit="10"/>
<path d="M47.5307 46.2257L41.2638 47.0292C39.4426 47.1899 33.6578 47.1363 31.8367 46.9221L25.9447 45.9579C25.3555 45.9579 24.927 45.5294 24.927 44.9402L24.4985 27.6393C24.4985 27.0501 24.927 26.6216 25.5162 26.6216L32.533 26.943C32.8008 26.943 41.1031 26.943 41.3173 26.943L48.0663 26.6216C48.6555 26.6216 49.084 27.0501 49.084 27.6393L48.4948 45.1545C48.5484 45.7437 48.1199 46.2257 47.5307 46.2257Z" stroke="black" stroke-width="0.8" stroke-miterlimit="10"/>
<path d="M46.3524 44.5117L40.6211 44.9402C39.0678 45.1009 34.1936 45.0473 32.6402 44.8331L27.3375 44.4046C26.8554 44.4046 26.4805 44.0296 26.4805 43.6011V29.0855C26.4805 28.6035 26.8554 28.2821 27.3375 28.2821L33.283 28.4963C33.4972 28.4963 40.4604 28.4963 40.6747 28.4963L46.3524 28.2285C46.8344 28.2285 47.2094 28.6035 47.2094 29.032V43.6011C47.1558 44.1368 46.7809 44.5117 46.3524 44.5117Z" stroke="black" stroke-width="0.8" stroke-miterlimit="10"/>
</g>
<defs>
<clipPath id="clip0">
<rect width="51.3134" height="51.3134" fill="white" transform="translate(10.9956 10.9958)"/>
</clipPath>
</defs>
</svg>
