<svg width="75" height="75" viewBox="0 0 75 75" fill="none" xmlns="http://www.w3.org/2000/svg">
<circle cx="37.2633" cy="37.2633" r="37.2633" fill="white" fill-opacity="0.8"/>
<g clip-path="url(#clip0)">
<path d="M18.2678 38.6981C18.2678 38.6981 13.2749 33.3609 12.9306 31.1227C12.7584 29.8601 12.7584 27.7941 12.8158 26.1872C12.8732 24.6951 13.8488 23.4326 15.2835 23.0309C21.1946 21.3092 37.8374 17.5789 59.1861 23.0882C60.6783 23.49 61.7113 24.8673 61.7113 26.4168V31.3523C61.7113 31.3523 59.8174 35.886 56.8332 38.1242C56.8332 38.1242 50.6926 35.0825 37.2061 35.1973C23.7197 35.3121 18.2678 38.6981 18.2678 38.6981Z" stroke="#242424" stroke-miterlimit="10"/>
<path d="M37.2635 54.1357C40.8451 54.1357 43.7485 51.2323 43.7485 47.6507C43.7485 44.0692 40.8451 41.1658 37.2635 41.1658C33.682 41.1658 30.7786 44.0692 30.7786 47.6507C30.7786 51.2323 33.682 54.1357 37.2635 54.1357Z" stroke="#242424" stroke-miterlimit="10"/>
<path d="M56.0872 40.1902C56.0872 40.1902 52.0125 37.2633 37.2636 37.2633C22.5146 37.2633 18.3826 41.1658 18.3826 41.1658C18.3826 41.1658 19.0712 60.2763 37.2636 60.2763C56.661 60.2763 56.0872 40.1902 56.0872 40.1902ZM37.2636 56.1443C32.615 56.1443 28.8274 52.3566 28.8274 47.7081C28.8274 43.0596 32.615 39.272 37.2636 39.272C41.9121 39.272 45.6997 43.0022 45.6997 47.6507C45.6997 52.3566 41.9121 56.1443 37.2636 56.1443Z" stroke="#242424" stroke-miterlimit="10"/>
<path d="M33.4758 47.536C33.8201 47.536 34.1071 47.3064 34.1645 46.9621C34.394 46.1586 34.9679 44.7813 36.6896 44.6091C37.0339 44.5517 37.2635 44.3222 37.2635 43.9779C37.2635 43.6335 36.9765 43.2892 36.5748 43.3466C35.5418 43.404 33.5332 43.8631 32.7871 46.6751C32.6724 47.0769 33.0167 47.536 33.4758 47.536Z" stroke="#242424" stroke-miterlimit="10"/>
</g>
<defs>
<clipPath id="clip0">
<rect width="54.9787" height="54.9787" fill="white" transform="translate(9.77417 9.77399)"/>
</clipPath>
</defs>
</svg>
