<svg width="75" height="75" viewBox="0 0 75 75" fill="none" xmlns="http://www.w3.org/2000/svg">
<circle cx="37.2633" cy="37.2633" r="37.2633" transform="rotate(180 37.2633 37.2633)" fill="white" fill-opacity="0.8"/>
<path d="M37.2636 40.6901C44.9655 40.6901 51.2092 34.4465 51.2092 26.7445C51.2092 19.0426 44.9655 12.799 37.2636 12.799C29.5617 12.799 23.3181 19.0426 23.3181 26.7445C23.3181 34.4465 29.5617 40.6901 37.2636 40.6901Z" stroke="#242424" stroke-miterlimit="10"/>
<path d="M47.8806 58.8824C55.5825 58.8824 61.8261 52.6388 61.8261 44.9369C61.8261 37.235 55.5825 30.9913 47.8806 30.9913C40.1787 30.9913 33.9351 37.235 33.9351 44.9369C33.9351 52.6388 40.1787 58.8824 47.8806 58.8824Z" stroke="#242424" stroke-miterlimit="10"/>
<path d="M26.6465 58.8824C34.3484 58.8824 40.592 52.6388 40.592 44.9369C40.592 37.235 34.3484 30.9913 26.6465 30.9913C18.9446 30.9913 12.7009 37.235 12.7009 44.9369C12.7009 52.6388 18.9446 58.8824 26.6465 58.8824Z" stroke="#242424" stroke-miterlimit="10"/>
<path d="M36.8618 27.9497C36.8618 28.2941 37.1488 28.6384 37.5505 28.6384C37.9522 28.6384 38.2392 28.3515 38.2392 27.9497C38.2392 27.6054 37.9522 27.2611 37.5505 27.2611C37.1488 27.3185 36.8618 27.6054 36.8618 27.9497ZM37.5505 27.9497C37.5505 28.0071 37.5505 28.0071 37.5505 27.9497C37.4931 28.0071 37.4357 28.0071 37.4357 27.9497C37.4931 27.9497 37.4931 27.8923 37.5505 27.9497C37.5505 27.8923 37.5505 27.9497 37.5505 27.9497Z" fill="#242424"/>
<path d="M40.4199 25.0229C40.5346 25.0229 40.592 24.9655 40.7068 24.9081C40.8216 24.7933 40.8216 24.5638 40.7068 24.3916C39.846 23.5882 38.7556 23.1864 37.5504 23.1864C36.4026 23.1864 35.3122 23.5882 34.4514 24.3916C34.2792 24.5064 34.2792 24.7359 34.4514 24.9081C34.5662 25.0803 34.7957 25.0803 34.9679 24.9081C35.714 24.2768 36.6322 23.8751 37.6078 23.8751C38.5834 23.8751 39.559 24.2194 40.2477 24.9081C40.2477 24.9655 40.3051 25.0229 40.4199 25.0229Z" fill="#242424"/>
<path d="M39.0998 26.6298C39.2146 26.6298 39.2719 26.5724 39.3867 26.515C39.5015 26.4002 39.5015 26.1707 39.3867 25.9985C38.8702 25.5394 38.2389 25.3098 37.5503 25.3098C36.8616 25.3098 36.2303 25.5394 35.7712 25.9985C35.599 26.1133 35.599 26.3428 35.7712 26.515C35.886 26.6872 36.1156 26.6872 36.2877 26.515C36.6321 26.1707 37.1486 25.9985 37.6077 25.9985C38.1242 25.9985 38.5833 26.1707 38.9276 26.515C38.9276 26.5724 38.985 26.6298 39.0998 26.6298Z" fill="#242424"/>
<path d="M42.0841 23.5882C42.1989 23.5882 42.2563 23.5308 42.3711 23.4734C42.4858 23.3586 42.4858 23.129 42.3711 22.9569C41.0511 21.7517 39.3294 21.063 37.5504 21.063C35.7713 21.063 34.107 21.6943 32.7871 22.8995C32.6149 23.0143 32.6149 23.2438 32.7871 23.416C32.9019 23.5882 33.1314 23.5882 33.3036 23.416C34.5088 22.3256 36.0009 21.7517 37.6078 21.7517C39.2147 21.7517 40.7642 22.3256 41.9119 23.416C41.9119 23.5308 41.9693 23.5882 42.0841 23.5882Z" fill="#242424"/>
<path d="M25.958 49.0115C25.958 49.3558 26.245 49.7002 26.6467 49.7002C27.0484 49.7002 27.3353 49.4132 27.3353 49.0115C27.3353 48.6672 27.0484 48.3228 26.6467 48.3228C26.3023 48.3802 25.958 48.6672 25.958 49.0115ZM26.7041 49.0115C26.7041 49.0115 26.6467 49.0689 26.7041 49.0115C26.6467 49.0689 26.5893 49.0689 26.5893 49.0115C26.5893 49.0115 26.5893 48.9541 26.7041 49.0115C26.6467 48.9541 26.7041 49.0115 26.7041 49.0115Z" fill="#242424"/>
<path d="M29.5734 46.0847C29.6882 46.0847 29.7456 46.0273 29.8604 45.9699C29.9751 45.8551 29.9751 45.6255 29.8604 45.4534C28.9995 44.6499 27.9091 44.2482 26.704 44.2482C25.5562 44.2482 24.4658 44.6499 23.605 45.4534C23.4328 45.5681 23.4328 45.7977 23.605 45.9699C23.7197 46.142 23.9493 46.142 24.1215 45.9699C24.8675 45.3386 25.7857 44.9369 26.7613 44.9369C27.737 44.9369 28.7126 45.2812 29.4012 45.9699C29.4012 46.0273 29.4586 46.0847 29.5734 46.0847Z" fill="#242424"/>
<path d="M28.1962 47.6915C28.311 47.6915 28.3684 47.6342 28.4832 47.5768C28.5979 47.462 28.5979 47.2324 28.4832 47.0603C27.9667 46.6012 27.3354 46.3716 26.6467 46.3716C25.958 46.3716 25.3268 46.6012 24.8677 47.0603C24.6955 47.175 24.6955 47.4046 24.8677 47.5768C24.9824 47.7489 25.212 47.7489 25.3842 47.5768C25.7285 47.2324 26.245 47.0603 26.7041 47.0603C27.2206 47.0603 27.6797 47.2324 28.024 47.5768C28.024 47.6342 28.1388 47.6915 28.1962 47.6915Z" fill="#242424"/>
<path d="M31.1803 44.6499C31.2951 44.6499 31.3525 44.5925 31.4672 44.5351C31.582 44.4204 31.582 44.1908 31.4672 44.0186C30.1473 42.8135 28.4256 42.1248 26.6466 42.1248C24.8675 42.1248 23.2032 42.7561 21.8833 43.9613C21.7111 44.076 21.7111 44.3056 21.8833 44.4778C22.0554 44.6499 22.2276 44.6499 22.3998 44.4778C23.6049 43.3874 25.0971 42.8135 26.704 42.8135C28.3108 42.8135 29.8603 43.3874 31.0081 44.4778C31.0655 44.5925 31.1229 44.6499 31.1803 44.6499Z" fill="#242424"/>
<path d="M47.1917 49.1837C47.1917 49.528 47.4786 49.8723 47.8803 49.8723C48.282 49.8723 48.569 49.5854 48.569 49.1837C48.569 48.8393 48.282 48.495 47.8803 48.495C47.536 48.495 47.1917 48.8393 47.1917 49.1837ZM47.9377 49.1837C47.9377 49.1837 47.9377 49.241 47.9377 49.1837C47.8803 49.241 47.8229 49.241 47.8229 49.1837C47.8229 49.1837 47.8229 49.1263 47.9377 49.1837C47.9377 49.1263 47.9377 49.1837 47.9377 49.1837Z" fill="#242424"/>
<path d="M50.8073 46.2568C50.9221 46.2568 50.9795 46.1994 51.0942 46.142C51.209 46.0273 51.209 45.7977 51.0942 45.6255C50.2334 44.8221 49.143 44.4204 47.9378 44.4204C46.7901 44.4204 45.6997 44.8221 44.8388 45.6255C44.6667 45.7403 44.6667 45.9699 44.8388 46.142C44.9536 46.3142 45.1832 46.3142 45.3553 46.142C46.1014 45.5108 47.0196 45.109 47.9952 45.109C48.9709 45.109 49.9465 45.4534 50.6351 46.142C50.6351 46.1994 50.6925 46.2568 50.8073 46.2568Z" fill="#242424"/>
<path d="M49.4875 47.8063C49.6022 47.8063 49.6596 47.7489 49.7744 47.6915C49.8892 47.5768 49.8892 47.3472 49.7744 47.175C49.2579 46.7159 48.6266 46.4864 47.938 46.4864C47.2493 46.4864 46.618 46.7159 46.1589 47.175C45.9867 47.2898 45.9867 47.5194 46.1589 47.6915C46.2737 47.8637 46.5032 47.8637 46.6754 47.6915C47.0197 47.3472 47.5362 47.175 47.9954 47.175C48.5119 47.175 48.971 47.3472 49.3153 47.6915C49.3153 47.8063 49.3727 47.8063 49.4875 47.8063Z" fill="#242424"/>
<path d="M52.4716 44.8221C52.5863 44.8221 52.6437 44.7647 52.7585 44.7073C52.8733 44.5925 52.8733 44.363 52.7585 44.1908C51.4386 42.9856 49.7169 42.297 47.9378 42.297C46.1588 42.297 44.4945 42.9283 43.1745 44.1334C43.0024 44.2482 43.0024 44.4778 43.1745 44.6499C43.2893 44.8221 43.5189 44.8221 43.691 44.6499C44.8962 43.5595 46.3883 42.9856 47.9952 42.9856C49.6021 42.9856 51.1516 43.5595 52.2994 44.6499C52.2994 44.7647 52.3568 44.8221 52.4716 44.8221Z" fill="#242424"/>
</svg>
